<?xml version="1.0" encoding="UTF-8" standalone="no"?>
<svg
   xmlns:dc="http://purl.org/dc/elements/1.1/"
   xmlns:cc="http://creativecommons.org/ns#"
   xmlns:rdf="http://www.w3.org/1999/02/22-rdf-syntax-ns#"
   xmlns:svg="http://www.w3.org/2000/svg"
   xmlns="http://www.w3.org/2000/svg"
   xmlns:sodipodi="http://sodipodi.sourceforge.net/DTD/sodipodi-0.dtd"
   xmlns:inkscape="http://www.inkscape.org/namespaces/inkscape"
   sodipodi:docname="plaits_8.svg"
   inkscape:version="1.0beta1 (32d4812, 2019-09-19)"
   id="svg7940"
   version="1.1"
   viewBox="0 0 2.9996693 2.9993167"
   height="2.9993167mm"
   width="2.9996693mm">
  <defs
     id="defs7934" />
  <sodipodi:namedview
     inkscape:window-maximized="0"
     inkscape:window-y="23"
     inkscape:window-x="0"
     inkscape:window-height="855"
     inkscape:window-width="1440"
     showgrid="false"
     inkscape:document-rotation="0"
     inkscape:current-layer="layer1"
     inkscape:document-units="mm"
     inkscape:cy="5.668"
     inkscape:cx="5.6686664"
     inkscape:zoom="57.074805"
     inkscape:pageshadow="2"
     inkscape:pageopacity="0.0"
     borderopacity="1.0"
     bordercolor="#666666"
     pagecolor="#ffffff"
     id="base" />
  <metadata
     id="metadata7937">
    <rdf:RDF>
      <cc:Work
         rdf:about="">
        <dc:format>image/svg+xml</dc:format>
        <dc:type
           rdf:resource="http://purl.org/dc/dcmitype/StillImage" />
        <dc:title></dc:title>
      </cc:Work>
    </rdf:RDF>
  </metadata>
  <g
     transform="translate(-104.3335,-146.667)"
     id="layer1"
     inkscape:groupmode="layer"
     inkscape:label="Layer 1">
    <g
       style="opacity:1;stop-opacity:1"
       id="g1611"
       transform="matrix(0.35277777,0,0,-0.35277777,106.18093,148.14635)">
      <path
         d="M 0,0 C -0.234,0 -0.426,0.191 -0.426,0.426 -0.426,0.66 -0.234,0.852 0,0.852 0.234,0.852 0.424,0.66 0.424,0.426 0.424,0.191 0.234,0 0,0 m -2.104,0.002 c -0.235,0 -0.424,0.189 -0.424,0.424 0,0.234 0.189,0.426 0.424,0.426 0.235,0 0.424,-0.192 0.424,-0.426 0,-0.235 -0.189,-0.424 -0.424,-0.424 m 1.116,1.56 c -1.165,0 -2.109,-0.515 -2.109,-1.152 0,-0.637 0.944,-1.152 2.109,-1.152 1.166,0 2.11,0.515 2.11,1.152 0,0.637 -0.944,1.152 -2.11,1.152"
         style="fill:#03a3ac;fill-opacity:1;fill-rule:nonzero;stroke:none"
         id="path1613"
         inkscape:connector-curvature="0" />
    </g>
    <path
       d="m 105.66538,148.64641 h 0.33549 v -0.11501 h -0.33549 z"
       style="opacity:1;fill:#03a3ac;fill-opacity:1;fill-rule:nonzero;stroke:none;stroke-width:0.352777;stop-opacity:1"
       id="path1615"
       inkscape:connector-curvature="0" />
    <g
       style="opacity:1;stop-opacity:1"
       id="g1617"
       transform="matrix(0.35277777,0,0,-0.35277777,106.70734,148.31377)">
      <path
         d="m 0,0 c -0.234,-0.547 -0.725,-0.99 -1.36,-1.234 v -1.069 h -2.239 v 1.069 C -4.234,-0.99 -4.725,-0.547 -4.959,0 h -0.553 v 1.252 h 0.489 c 0.294,0.926 1.317,1.615 2.543,1.615 1.227,0 2.25,-0.689 2.544,-1.615 H 0.552 V 0 Z m -2.478,4.668 c -2.348,0 -4.251,-1.902 -4.251,-4.25 0,-2.35 1.903,-4.252 4.251,-4.252 2.349,0 4.252,1.902 4.252,4.252 0,2.348 -1.903,4.25 -4.252,4.25"
         style="fill:#03a3ac;fill-opacity:1;fill-rule:nonzero;stroke:none"
         id="path1619"
         inkscape:connector-curvature="0" />
    </g>
  </g>
</svg>
