<?xml version="1.0" encoding="UTF-8" standalone="no"?>
<svg
   xmlns:dc="http://purl.org/dc/elements/1.1/"
   xmlns:cc="http://creativecommons.org/ns#"
   xmlns:rdf="http://www.w3.org/1999/02/22-rdf-syntax-ns#"
   xmlns:svg="http://www.w3.org/2000/svg"
   xmlns="http://www.w3.org/2000/svg"
   xmlns:sodipodi="http://sodipodi.sourceforge.net/DTD/sodipodi-0.dtd"
   xmlns:inkscape="http://www.inkscape.org/namespaces/inkscape"
   sodipodi:docname="plaits_15.svg"
   inkscape:version="1.0beta1 (32d4812, 2019-09-19)"
   id="svg12217"
   version="1.1"
   viewBox="0 0 3.0000222 2.9996693"
   height="2.9996693mm"
   width="3.0000222mm">
  <defs
     id="defs12211" />
  <sodipodi:namedview
     inkscape:window-maximized="0"
     inkscape:window-y="23"
     inkscape:window-x="0"
     inkscape:window-height="855"
     inkscape:window-width="1440"
     showgrid="false"
     inkscape:document-rotation="0"
     inkscape:current-layer="layer1"
     inkscape:document-units="mm"
     inkscape:cy="5.6686664"
     inkscape:cx="5.6693332"
     inkscape:zoom="57.068096"
     inkscape:pageshadow="2"
     inkscape:pageopacity="0.0"
     borderopacity="1.0"
     bordercolor="#666666"
     pagecolor="#ffffff"
     id="base" />
  <metadata
     id="metadata12214">
    <rdf:RDF>
      <cc:Work
         rdf:about="">
        <dc:format>image/svg+xml</dc:format>
        <dc:type
           rdf:resource="http://purl.org/dc/dcmitype/StillImage" />
        <dc:title></dc:title>
      </cc:Work>
    </rdf:RDF>
  </metadata>
  <g
     transform="translate(-104.33332,-146.66684)"
     id="layer1"
     inkscape:groupmode="layer"
     inkscape:label="Layer 1">
    <g
       style="opacity:1;stop-opacity:1"
       id="g1357"
       transform="matrix(0.35277777,0,0,-0.35277777,105.22497,148.11498)">
      <path
         d="m 0,0 c 0.04,-0.099 0.618,-0.392 1.698,-0.392 1.081,0 1.66,0.294 1.698,0.407 C 3.356,0.116 2.794,0.405 1.698,0.405 0.604,0.405 0.042,0.117 0,0.002 Z"
         style="fill:#db285d;fill-opacity:1;fill-rule:nonzero;stroke:none"
         id="path1359"
         inkscape:connector-curvature="0" />
    </g>
    <g
       style="opacity:1;stop-opacity:1"
       id="g1361"
       transform="matrix(0.35277777,0,0,-0.35277777,105.82406,148.42952)">
      <path
         d="m 0,0 c -0.623,0 -1.269,0.101 -1.698,0.307 v -1.29 c 0.036,-0.106 0.615,-0.4 1.698,-0.4 1.099,0 1.659,0.29 1.697,0.405 L 1.696,0.307 C 1.267,0.101 0.622,0 0,0"
         style="fill:#db285d;fill-opacity:1;fill-rule:nonzero;stroke:none"
         id="path1363"
         inkscape:connector-curvature="0" />
    </g>
    <g
       style="opacity:1;stop-opacity:1"
       id="g1365"
       transform="matrix(0.35277777,0,0,-0.35277777,105.30353,147.64611)">
      <path
         d="M 0,0 C 0.18,0 0.326,0.146 0.326,0.326 0.326,0.506 0.18,0.652 0,0.652 -0.18,0.652 -0.326,0.506 -0.326,0.326 -0.326,0.146 -0.18,0 0,0"
         style="fill:#db285d;fill-opacity:1;fill-rule:nonzero;stroke:none"
         id="path1367"
         inkscape:connector-curvature="0" />
    </g>
    <g
       style="opacity:1;stop-opacity:1"
       id="g1369"
       transform="matrix(0.35277777,0,0,-0.35277777,106.59886,148.18872)">
      <path
         d="m 0,0 v -1.666 c 0,-0.618 -1.139,-0.899 -2.196,-0.899 -1.059,0 -2.199,0.281 -2.199,0.899 v 1.883 c 0,0.616 1.14,0.897 2.199,0.897 C -1.139,1.114 0,0.833 0,0.217 0,0.14 -0.018,0.067 -0.052,0 Z m -3.672,2.69 c 0.366,0 0.668,-0.245 0.776,-0.576 h 2.804 v -0.5 h -2.804 c -0.108,-0.331 -0.41,-0.576 -0.776,-0.576 -0.455,0 -0.826,0.371 -0.826,0.826 0,0.455 0.371,0.826 0.826,0.826 m 1.502,1.624 c -2.35,0 -4.252,-1.903 -4.252,-4.252 0,-2.348 1.902,-4.251 4.252,-4.251 2.348,0 4.252,1.903 4.252,4.251 0,2.349 -1.904,4.252 -4.252,4.252"
         style="fill:#db285d;fill-opacity:1;fill-rule:nonzero;stroke:none"
         id="path1371"
         inkscape:connector-curvature="0" />
    </g>
  </g>
</svg>
