<?xml version="1.0" encoding="UTF-8" standalone="no"?>
<svg
   xmlns:dc="http://purl.org/dc/elements/1.1/"
   xmlns:cc="http://creativecommons.org/ns#"
   xmlns:rdf="http://www.w3.org/1999/02/22-rdf-syntax-ns#"
   xmlns:svg="http://www.w3.org/2000/svg"
   xmlns="http://www.w3.org/2000/svg"
   xmlns:sodipodi="http://sodipodi.sourceforge.net/DTD/sodipodi-0.dtd"
   xmlns:inkscape="http://www.inkscape.org/namespaces/inkscape"
   sodipodi:docname="plaits_2.svg"
   inkscape:version="1.0beta1 (32d4812, 2019-09-19)"
   id="svg2946"
   version="1.1"
   viewBox="0 0 3.0000222 3.0000222"
   height="3.0000222mm"
   width="3.0000222mm">
  <defs
     id="defs2940" />
  <sodipodi:namedview
     inkscape:window-maximized="0"
     inkscape:window-y="23"
     inkscape:window-x="0"
     inkscape:window-height="855"
     inkscape:window-width="1440"
     showgrid="false"
     inkscape:document-rotation="0"
     inkscape:current-layer="layer1"
     inkscape:document-units="mm"
     inkscape:cy="5.6693185"
     inkscape:cx="5.6693289"
     inkscape:zoom="0.35"
     inkscape:pageshadow="2"
     inkscape:pageopacity="0.0"
     borderopacity="1.0"
     bordercolor="#666666"
     pagecolor="#ffffff"
     id="base" />
  <metadata
     id="metadata2943">
    <rdf:RDF>
      <cc:Work
         rdf:about="">
        <dc:format>image/svg+xml</dc:format>
        <dc:type
           rdf:resource="http://purl.org/dc/dcmitype/StillImage" />
        <dc:title></dc:title>
      </cc:Work>
    </rdf:RDF>
  </metadata>
  <g
     transform="translate(-104.33332,-146.66666)"
     id="layer1"
     inkscape:groupmode="layer"
     inkscape:label="Layer 1">
    <g
       style="opacity:1;stop-opacity:1"
       id="g1317"
       transform="matrix(0.35277777,0,0,-0.35277777,106.57699,148.66444)">
      <path
         d="m 0,0 c -0.306,-0.326 -0.728,-0.506 -1.189,-0.506 -0.929,0 -1.89,0.756 -1.89,2.021 0,0.565 -0.117,0.885 -0.215,1.054 -0.097,0.167 -0.217,0.259 -0.337,0.259 -0.243,0 -0.603,-0.418 -0.603,-1.313 0,-0.138 -0.113,-0.25 -0.25,-0.25 -0.138,0 -0.25,0.112 -0.25,0.25 0,1.19 0.555,1.813 1.103,1.813 0.302,0 0.582,-0.185 0.769,-0.508 0.185,-0.318 0.283,-0.77 0.283,-1.305 0,-1.459 1.564,-1.869 2.214,-1.173 0.251,0.267 0.383,0.673 0.383,1.173 0,0.137 0.112,0.25 0.25,0.25 0.137,0 0.25,-0.113 0.25,-0.25 C 0.518,0.886 0.339,0.362 0,0 m -2.108,5.663 c -2.348,0 -4.252,-1.903 -4.252,-4.252 0,-2.348 1.904,-4.252 4.252,-4.252 2.349,0 4.252,1.904 4.252,4.252 0,2.349 -1.903,4.252 -4.252,4.252"
         style="fill:#03a3ac;fill-opacity:1;fill-rule:nonzero;stroke:none"
         id="path1319"
         inkscape:connector-curvature="0" />
    </g>
  </g>
</svg>
