<?xml version="1.0" encoding="UTF-8" standalone="no"?>
<svg
   xmlns:dc="http://purl.org/dc/elements/1.1/"
   xmlns:cc="http://creativecommons.org/ns#"
   xmlns:rdf="http://www.w3.org/1999/02/22-rdf-syntax-ns#"
   xmlns:svg="http://www.w3.org/2000/svg"
   xmlns="http://www.w3.org/2000/svg"
   xmlns:sodipodi="http://sodipodi.sourceforge.net/DTD/sodipodi-0.dtd"
   xmlns:inkscape="http://www.inkscape.org/namespaces/inkscape"
   sodipodi:docname="plaits_11.svg"
   inkscape:version="1.0beta1 (32d4812, 2019-09-19)"
   id="svg9761"
   version="1.1"
   viewBox="0 0 3.0000222 2.9996693"
   height="2.9996693mm"
   width="3.0000222mm">
  <defs
     id="defs9755" />
  <sodipodi:namedview
     inkscape:window-maximized="0"
     inkscape:window-y="23"
     inkscape:window-x="0"
     inkscape:window-height="855"
     inkscape:window-width="1440"
     showgrid="false"
     inkscape:document-rotation="0"
     inkscape:current-layer="layer1"
     inkscape:document-units="mm"
     inkscape:cy="5.6686664"
     inkscape:cx="5.6693332"
     inkscape:zoom="57.068096"
     inkscape:pageshadow="2"
     inkscape:pageopacity="0.0"
     borderopacity="1.0"
     bordercolor="#666666"
     pagecolor="#ffffff"
     id="base" />
  <metadata
     id="metadata9758">
    <rdf:RDF>
      <cc:Work
         rdf:about="">
        <dc:format>image/svg+xml</dc:format>
        <dc:type
           rdf:resource="http://purl.org/dc/dcmitype/StillImage" />
        <dc:title></dc:title>
      </cc:Work>
    </rdf:RDF>
  </metadata>
  <g
     transform="translate(-104.33333,-146.66683)"
     id="layer1"
     inkscape:groupmode="layer"
     inkscape:label="Layer 1">
    <g
       style="opacity:1;stop-opacity:1"
       id="g1621"
       transform="matrix(0.35277777,0,0,-0.35277777,106.813,148.29208)">
      <path
         d="M 0,0 C -0.182,0 -0.329,0.146 -0.329,0.328 -0.329,0.51 -0.182,0.656 0,0.656 0.181,0.656 0.327,0.51 0.327,0.328 0.327,0.146 0.181,0 0,0 m -0.9,-0.969 c -0.248,0 -0.452,0.201 -0.452,0.45 0,0.249 0.204,0.451 0.452,0.451 0.248,0 0.449,-0.202 0.449,-0.451 0,-0.249 -0.201,-0.45 -0.449,-0.45 m -0.565,2.023 c 0,0.196 0.158,0.354 0.354,0.354 0.195,0 0.355,-0.158 0.355,-0.354 0,-0.197 -0.16,-0.355 -0.355,-0.355 -0.196,0 -0.354,0.158 -0.354,0.355 m -0.336,-3.057 c -0.176,0 -0.319,0.142 -0.319,0.318 0,0.177 0.143,0.319 0.319,0.319 0.176,0 0.318,-0.142 0.318,-0.319 0,-0.176 -0.142,-0.318 -0.318,-0.318 m -0.66,1.805 c 0,0.249 0.201,0.45 0.449,0.45 0.248,0 0.451,-0.201 0.451,-0.45 0,-0.249 -0.203,-0.45 -0.451,-0.45 -0.248,0 -0.449,0.201 -0.449,0.45 m -0.691,1.331 c 0,0.249 0.203,0.45 0.451,0.45 0.248,0 0.449,-0.201 0.449,-0.45 0,-0.249 -0.201,-0.45 -0.449,-0.45 -0.248,0 -0.451,0.201 -0.451,0.45 m 0,-2.232 c -0.248,0 -0.45,0.202 -0.45,0.451 0,0.249 0.202,0.45 0.45,0.45 0.248,0 0.451,-0.201 0.451,-0.45 0,-0.249 -0.203,-0.451 -0.451,-0.451 m -0.967,0.901 c -0.248,0 -0.451,0.201 -0.451,0.45 0,0.249 0.203,0.45 0.451,0.45 0.248,0 0.449,-0.201 0.449,-0.45 0,-0.249 -0.201,-0.45 -0.449,-0.45 M -4.57,-1.773 c -0.196,0 -0.354,0.158 -0.354,0.354 0,0.196 0.158,0.355 0.354,0.355 0.195,0 0.355,-0.159 0.355,-0.355 0,-0.196 -0.16,-0.354 -0.355,-0.354 m -0.084,3.71 c 0.195,0 0.355,-0.158 0.355,-0.354 0,-0.196 -0.16,-0.354 -0.355,-0.354 -0.196,0 -0.354,0.158 -0.354,0.354 0,0.196 0.158,0.354 0.354,0.354 m -0.901,-2.249 c -0.18,0 -0.327,0.146 -0.327,0.328 0,0.181 0.147,0.328 0.327,0.328 0.182,0 0.329,-0.147 0.329,-0.328 0,-0.182 -0.147,-0.328 -0.329,-0.328 m 2.543,3.062 c 0.196,0 0.354,-0.158 0.354,-0.354 0,-0.197 -0.158,-0.355 -0.354,-0.355 -0.195,0 -0.355,0.158 -0.355,0.355 0,0.196 0.16,0.354 0.355,0.354 m 0.235,1.857 c -2.35,0 -4.252,-1.903 -4.252,-4.252 0,-2.348 1.902,-4.251 4.252,-4.251 2.347,0 4.252,1.903 4.252,4.251 0,2.349 -1.905,4.252 -4.252,4.252"
         style="fill:#db285d;fill-opacity:1;fill-rule:nonzero;stroke:none"
         id="path1623"
         inkscape:connector-curvature="0" />
    </g>
  </g>
</svg>
