<?xml version="1.0" encoding="UTF-8" standalone="no"?>
<svg
   xmlns:dc="http://purl.org/dc/elements/1.1/"
   xmlns:cc="http://creativecommons.org/ns#"
   xmlns:rdf="http://www.w3.org/1999/02/22-rdf-syntax-ns#"
   xmlns:svg="http://www.w3.org/2000/svg"
   xmlns="http://www.w3.org/2000/svg"
   xmlns:sodipodi="http://sodipodi.sourceforge.net/DTD/sodipodi-0.dtd"
   xmlns:inkscape="http://www.inkscape.org/namespaces/inkscape"
   sodipodi:docname="plaits_13.svg"
   inkscape:version="1.0beta1 (32d4812, 2019-09-19)"
   id="svg10977"
   version="1.1"
   viewBox="0 0 3.0000222 3.0000222"
   height="3.0000222mm"
   width="3.0000222mm">
  <defs
     id="defs10971" />
  <sodipodi:namedview
     inkscape:window-maximized="0"
     inkscape:window-y="23"
     inkscape:window-x="0"
     inkscape:window-height="855"
     inkscape:window-width="1440"
     showgrid="false"
     inkscape:document-rotation="0"
     inkscape:current-layer="layer1"
     inkscape:document-units="mm"
     inkscape:cy="5.6693332"
     inkscape:cx="5.6693332"
     inkscape:zoom="57.061384"
     inkscape:pageshadow="2"
     inkscape:pageopacity="0.0"
     borderopacity="1.0"
     bordercolor="#666666"
     pagecolor="#ffffff"
     id="base" />
  <metadata
     id="metadata10974">
    <rdf:RDF>
      <cc:Work
         rdf:about="">
        <dc:format>image/svg+xml</dc:format>
        <dc:type
           rdf:resource="http://purl.org/dc/dcmitype/StillImage" />
        <dc:title></dc:title>
      </cc:Work>
    </rdf:RDF>
  </metadata>
  <g
     transform="translate(-104.33332,-146.66665)"
     id="layer1"
     inkscape:groupmode="layer"
     inkscape:label="Layer 1">
    <g
       style="opacity:1;stop-opacity:1"
       id="g1337"
       transform="matrix(0.35277777,0,0,-0.35277777,105.83266,147.9496)">
      <path
         d="m 0,0 c -0.337,0 -0.611,-0.276 -0.611,-0.615 0,-0.339 0.274,-0.615 0.611,-0.615 0.339,0 0.615,0.276 0.615,0.615 C 0.615,-0.276 0.339,0 0,0"
         style="fill:#db285d;fill-opacity:1;fill-rule:nonzero;stroke:none"
         id="path1339"
         inkscape:connector-curvature="0" />
    </g>
    <g
       style="opacity:1;stop-opacity:1"
       id="g1341"
       transform="matrix(0.35277777,0,0,-0.35277777,105.83266,148.92937)">
      <path
         d="m 0,0 c -1.191,0 -2.16,0.97 -2.16,2.162 0,1.192 0.969,2.162 2.16,2.162 1.193,0 2.164,-0.97 2.164,-2.162 C 2.164,0.97 1.193,0 0,0 m 0.002,4.951 c -1.539,0 -2.791,-1.251 -2.791,-2.789 0,-1.538 1.252,-2.789 2.791,-2.789 1.539,0 2.791,1.251 2.791,2.789 0,1.538 -1.252,2.789 -2.791,2.789"
         style="fill:#db285d;fill-opacity:1;fill-rule:nonzero;stroke:none"
         id="path1343"
         inkscape:connector-curvature="0" />
    </g>
    <g
       style="opacity:1;stop-opacity:1"
       id="g1345"
       transform="matrix(0.35277777,0,0,-0.35277777,105.83266,148.56008)">
      <path
         d="M 0,0 C -0.612,0 -1.111,0.5 -1.111,1.115 -1.111,1.73 -0.612,2.23 0,2.23 0.615,2.23 1.115,1.73 1.115,1.115 1.115,0.5 0.615,0 0,0 m 0,2.777 c -0.915,0 -1.66,-0.746 -1.66,-1.662 0,-0.916 0.745,-1.662 1.66,-1.662 0.918,0 1.664,0.746 1.664,1.662 0,0.916 -0.746,1.662 -1.664,1.662"
         style="fill:#db285d;fill-opacity:1;fill-rule:nonzero;stroke:none"
         id="path1347"
         inkscape:connector-curvature="0" />
    </g>
    <g
       style="opacity:1;stop-opacity:1"
       id="g1349"
       transform="matrix(0.35277777,0,0,-0.35277777,105.83333,149.32695)">
      <path
         d="m 0,0 c -1.814,0 -3.291,1.476 -3.291,3.289 0,1.814 1.477,3.289 3.291,3.289 1.814,0 3.291,-1.475 3.291,-3.289 C 3.291,1.476 1.814,0 0,0 m 0,7.541 c -2.35,0 -4.252,-1.903 -4.252,-4.252 0,-2.349 1.902,-4.252 4.252,-4.252 2.348,0 4.252,1.903 4.252,4.252 0,2.349 -1.904,4.252 -4.252,4.252"
         style="fill:#db285d;fill-opacity:1;fill-rule:nonzero;stroke:none"
         id="path1351"
         inkscape:connector-curvature="0" />
    </g>
  </g>
</svg>
