<?xml version="1.0" encoding="UTF-8" standalone="no"?>
<svg
   xmlns:dc="http://purl.org/dc/elements/1.1/"
   xmlns:cc="http://creativecommons.org/ns#"
   xmlns:rdf="http://www.w3.org/1999/02/22-rdf-syntax-ns#"
   xmlns:svg="http://www.w3.org/2000/svg"
   xmlns="http://www.w3.org/2000/svg"
   xmlns:sodipodi="http://sodipodi.sourceforge.net/DTD/sodipodi-0.dtd"
   xmlns:inkscape="http://www.inkscape.org/namespaces/inkscape"
   sodipodi:docname="plaits_16.svg"
   inkscape:version="1.0beta1 (32d4812, 2019-09-19)"
   id="svg12838"
   version="1.1"
   viewBox="0 0 3.0000222 3.0000222"
   height="3.0000222mm"
   width="3.0000222mm">
  <defs
     id="defs12832" />
  <sodipodi:namedview
     inkscape:window-maximized="0"
     inkscape:window-y="23"
     inkscape:window-x="0"
     inkscape:window-height="855"
     inkscape:window-width="1440"
     showgrid="false"
     inkscape:document-rotation="0"
     inkscape:current-layer="layer1"
     inkscape:document-units="mm"
     inkscape:cy="5.6693332"
     inkscape:cx="5.6693332"
     inkscape:zoom="57.061384"
     inkscape:pageshadow="2"
     inkscape:pageopacity="0.0"
     borderopacity="1.0"
     bordercolor="#666666"
     pagecolor="#ffffff"
     id="base" />
  <metadata
     id="metadata12835">
    <rdf:RDF>
      <cc:Work
         rdf:about="">
        <dc:format>image/svg+xml</dc:format>
        <dc:type
           rdf:resource="http://purl.org/dc/dcmitype/StillImage" />
        <dc:title></dc:title>
      </cc:Work>
    </rdf:RDF>
  </metadata>
  <g
     transform="translate(-104.33332,-146.66666)"
     id="layer1"
     inkscape:groupmode="layer"
     inkscape:label="Layer 1">
    <g
       style="opacity:1;stop-opacity:1"
       id="g1385"
       transform="matrix(0.35277777,0,0,-0.35277777,105.83333,147.50503)">
      <path
         d="M 0,0 C -0.507,0 -0.864,-0.374 -1.242,-0.771 -1.363,-0.898 -1.486,-1.026 -1.615,-1.145 H 1.616 C 1.487,-1.026 1.364,-0.898 1.243,-0.771 0.864,-0.374 0.507,0 0,0"
         style="fill:#db285d;fill-opacity:1;fill-rule:nonzero;stroke:none"
         id="path1387"
         inkscape:connector-curvature="0" />
    </g>
    <g
       style="opacity:1;stop-opacity:1"
       id="g1389"
       transform="matrix(0.35277777,0,0,-0.35277777,105.83333,148.82862)">
      <path
         d="M 0,0 C 0.507,0 0.864,0.374 1.242,0.771 1.363,0.898 1.486,1.026 1.615,1.145 H -1.616 C -1.487,1.026 -1.364,0.898 -1.243,0.771 -0.864,0.374 -0.507,0 0,0"
         style="fill:#db285d;fill-opacity:1;fill-rule:nonzero;stroke:none"
         id="path1391"
         inkscape:connector-curvature="0" />
    </g>
    <g
       style="opacity:1;stop-opacity:1"
       id="g1393"
       transform="matrix(0.35277777,0,0,-0.35277777,106.83346,148.08518)">
      <path
         d="m 0,0 h -5.668 v 0.5 h 0.109 c 0.434,0 0.752,0.333 1.12,0.719 0.414,0.433 0.882,0.926 1.604,0.926 0.721,0 1.19,-0.492 1.605,-0.926 C -0.862,0.833 -0.544,0.5 -0.109,0.5 H 0 Z m -0.111,-0.963 c -0.434,0 -0.752,-0.333 -1.119,-0.719 -0.415,-0.433 -0.883,-0.925 -1.605,-0.925 -0.721,0 -1.19,0.491 -1.604,0.925 -0.369,0.386 -0.687,0.719 -1.122,0.719 H -5.67 v 0.5 h 5.559 z m -2.724,4.984 c -2.35,0 -4.252,-1.904 -4.252,-4.252 0,-2.349 1.902,-4.252 4.252,-4.252 2.348,0 4.252,1.903 4.252,4.252 0,2.348 -1.904,4.252 -4.252,4.252"
         style="fill:#db285d;fill-opacity:1;fill-rule:nonzero;stroke:none"
         id="path1395"
         inkscape:connector-curvature="0" />
    </g>
  </g>
</svg>
