<?xml version="1.0" encoding="UTF-8" standalone="no"?>
<svg
   xmlns:dc="http://purl.org/dc/elements/1.1/"
   xmlns:cc="http://creativecommons.org/ns#"
   xmlns:rdf="http://www.w3.org/1999/02/22-rdf-syntax-ns#"
   xmlns:svg="http://www.w3.org/2000/svg"
   xmlns="http://www.w3.org/2000/svg"
   xmlns:sodipodi="http://sodipodi.sourceforge.net/DTD/sodipodi-0.dtd"
   xmlns:inkscape="http://www.inkscape.org/namespaces/inkscape"
   sodipodi:docname="plaits_1.svg"
   inkscape:version="1.0beta1 (32d4812, 2019-09-19)"
   id="svg2341"
   version="1.1"
   viewBox="0 0 3.0000222 3.0000222"
   height="3.0000222mm"
   width="3.0000222mm">
  <defs
     id="defs2335" />
  <sodipodi:namedview
     inkscape:window-maximized="0"
     inkscape:window-y="23"
     inkscape:window-x="0"
     inkscape:window-height="855"
     inkscape:window-width="1440"
     showgrid="false"
     inkscape:document-rotation="0"
     inkscape:current-layer="layer1"
     inkscape:document-units="mm"
     inkscape:cy="5.6693332"
     inkscape:cx="5.6693332"
     inkscape:zoom="57.061384"
     inkscape:pageshadow="2"
     inkscape:pageopacity="0.0"
     borderopacity="1.0"
     bordercolor="#666666"
     pagecolor="#ffffff"
     id="base" />
  <metadata
     id="metadata2338">
    <rdf:RDF>
      <cc:Work
         rdf:about="">
        <dc:format>image/svg+xml</dc:format>
        <dc:type
           rdf:resource="http://purl.org/dc/dcmitype/StillImage" />
        <dc:title></dc:title>
      </cc:Work>
    </rdf:RDF>
  </metadata>
  <g
     transform="translate(-104.33332,-146.66666)"
     id="layer1"
     inkscape:groupmode="layer"
     inkscape:label="Layer 1">
    <g
       style="opacity:1;stop-opacity:1"
       id="g1607"
       transform="matrix(0.35277777,0,0,-0.35277777,106.42141,148.1261)">
      <path
         d="m 0,0 c 0,-0.138 -0.112,-0.25 -0.25,-0.25 -0.138,0 -0.25,0.112 -0.25,0.25 v 0.227 l -2.486,-1.06 c -0.032,-0.014 -0.065,-0.021 -0.098,-0.021 -0.048,0 -0.097,0.014 -0.138,0.042 -0.07,0.046 -0.112,0.125 -0.112,0.208 v 0.606 c 0,0.138 0.112,0.25 0.25,0.25 0.138,0 0.25,-0.112 0.25,-0.25 v -0.227 l 2.486,1.06 C -0.271,0.868 -0.181,0.86 -0.112,0.814 -0.042,0.768 0,0.689 0,0.605 Z m 0,-2.666 c 0,-0.138 -0.112,-0.25 -0.25,-0.25 h -1.419 c -0.138,0 -0.25,0.112 -0.25,0.25 v 0.96 h -0.915 v -0.355 c 0,-0.137 -0.112,-0.25 -0.25,-0.25 -0.138,0 -0.25,0.113 -0.25,0.25 v 0.605 c 0,0.138 0.112,0.25 0.25,0.25 h 1.415 c 0.138,0 0.25,-0.112 0.25,-0.25 v -0.96 H -0.5 v 0.355 c 0,0.138 0.112,0.25 0.25,0.25 0.138,0 0.25,-0.112 0.25,-0.25 z m -3.246,4.687 0.708,0.605 c 0.094,0.08 0.23,0.08 0.324,0 l 1.256,-1.071 0.546,0.466 C -0.308,2.109 -0.15,2.099 -0.06,1.993 0.029,1.889 0.018,1.73 -0.088,1.641 L -0.796,1.035 C -0.843,0.995 -0.9,0.976 -0.958,0.976 c -0.058,0 -0.115,0.019 -0.162,0.059 L -2.376,2.106 -2.922,1.641 c -0.103,-0.09 -0.261,-0.079 -0.352,0.028 -0.089,0.104 -0.078,0.263 0.028,0.352 m 1.579,2.116 c -2.348,0 -4.252,-1.904 -4.252,-4.252 0,-2.349 1.904,-4.252 4.252,-4.252 2.35,0 4.252,1.903 4.252,4.252 0,2.348 -1.902,4.252 -4.252,4.252"
         style="fill:#03a3ac;fill-opacity:1;fill-rule:nonzero;stroke:none"
         id="path1609"
         inkscape:connector-curvature="0" />
    </g>
  </g>
</svg>
