<?xml version="1.0" encoding="UTF-8" standalone="no"?>
<svg
   xmlns:dc="http://purl.org/dc/elements/1.1/"
   xmlns:cc="http://creativecommons.org/ns#"
   xmlns:rdf="http://www.w3.org/1999/02/22-rdf-syntax-ns#"
   xmlns:svg="http://www.w3.org/2000/svg"
   xmlns="http://www.w3.org/2000/svg"
   xmlns:sodipodi="http://sodipodi.sourceforge.net/DTD/sodipodi-0.dtd"
   xmlns:inkscape="http://www.inkscape.org/namespaces/inkscape"
   sodipodi:docname="plaits_9.svg"
   inkscape:version="1.0beta1 (32d4812, 2019-09-19)"
   id="svg8551"
   version="1.1"
   viewBox="0 0 3.0000222 3.0000222"
   height="3.0000222mm"
   width="3.0000222mm">
  <defs
     id="defs8545" />
  <sodipodi:namedview
     inkscape:window-maximized="0"
     inkscape:window-y="23"
     inkscape:window-x="0"
     inkscape:window-height="855"
     inkscape:window-width="1440"
     showgrid="false"
     inkscape:document-rotation="0"
     inkscape:current-layer="layer1"
     inkscape:document-units="mm"
     inkscape:cy="5.6693332"
     inkscape:cx="5.6693332"
     inkscape:zoom="57.061384"
     inkscape:pageshadow="2"
     inkscape:pageopacity="0.0"
     borderopacity="1.0"
     bordercolor="#666666"
     pagecolor="#ffffff"
     id="base" />
  <metadata
     id="metadata8548">
    <rdf:RDF>
      <cc:Work
         rdf:about="">
        <dc:format>image/svg+xml</dc:format>
        <dc:type
           rdf:resource="http://purl.org/dc/dcmitype/StillImage" />
        <dc:title></dc:title>
      </cc:Work>
    </rdf:RDF>
  </metadata>
  <g
     transform="translate(101.28573,101.28573)"
     id="layer1"
     inkscape:groupmode="layer"
     inkscape:label="Layer 1">
    <g
       style="opacity:1;stop-opacity:1"
       id="g1629"
       transform="matrix(0.35277777,0,0,-0.35277777,-99.118612,-99.345095)">
      <path
         d="m 0,0 h -3.783 c -0.52,0 -0.943,0.423 -0.943,0.941 0,0.495 0.384,0.888 0.867,0.928 -0.043,0.081 -0.075,0.17 -0.075,0.269 0,0.319 0.258,0.579 0.577,0.579 0.197,0 0.363,-0.106 0.466,-0.256 0.282,0.364 0.717,0.603 1.211,0.603 0.738,0 1.353,-0.522 1.499,-1.215 C -0.12,1.86 -0.064,1.885 0,1.885 0.521,1.885 0.944,1.463 0.944,0.941 0.944,0.423 0.521,0 0,0 m -1.891,5.501 c -2.349,0 -4.252,-1.903 -4.252,-4.252 0,-2.349 1.903,-4.252 4.252,-4.252 2.348,0 4.252,1.903 4.252,4.252 0,2.349 -1.904,4.252 -4.252,4.252"
         style="fill:#db285d;fill-opacity:1;fill-rule:nonzero;stroke:none"
         id="path1631"
         inkscape:connector-curvature="0" />
    </g>
  </g>
</svg>
