<?xml version="1.0" encoding="UTF-8" standalone="no"?>
<svg
   xmlns:dc="http://purl.org/dc/elements/1.1/"
   xmlns:cc="http://creativecommons.org/ns#"
   xmlns:rdf="http://www.w3.org/1999/02/22-rdf-syntax-ns#"
   xmlns:svg="http://www.w3.org/2000/svg"
   xmlns="http://www.w3.org/2000/svg"
   xmlns:sodipodi="http://sodipodi.sourceforge.net/DTD/sodipodi-0.dtd"
   xmlns:inkscape="http://www.inkscape.org/namespaces/inkscape"
   sodipodi:docname="plaits_5.svg"
   inkscape:version="1.0beta1 (32d4812, 2019-09-19)"
   id="svg4761"
   version="1.1"
   viewBox="0 0 3.0000222 3.0000222"
   height="3.0000222mm"
   width="3.0000222mm">
  <defs
     id="defs4755" />
  <sodipodi:namedview
     inkscape:window-maximized="0"
     inkscape:window-y="23"
     inkscape:window-x="0"
     inkscape:window-height="855"
     inkscape:window-width="1440"
     showgrid="false"
     inkscape:document-rotation="0"
     inkscape:current-layer="layer1"
     inkscape:document-units="mm"
     inkscape:cy="5.6693458"
     inkscape:cx="5.6693457"
     inkscape:zoom="0.35"
     inkscape:pageshadow="2"
     inkscape:pageopacity="0.0"
     borderopacity="1.0"
     bordercolor="#666666"
     pagecolor="#ffffff"
     id="base" />
  <metadata
     id="metadata4758">
    <rdf:RDF>
      <cc:Work
         rdf:about="">
        <dc:format>image/svg+xml</dc:format>
        <dc:type
           rdf:resource="http://purl.org/dc/dcmitype/StillImage" />
        <dc:title></dc:title>
      </cc:Work>
    </rdf:RDF>
  </metadata>
  <g
     transform="translate(-104.33332,-146.66665)"
     id="layer1"
     inkscape:groupmode="layer"
     inkscape:label="Layer 1">
    <g
       style="opacity:1;stop-opacity:1"
       id="g1633"
       transform="matrix(0.35277777,0,0,-0.35277777,106.67153,147.73698)">
      <path
         d="M 0,0 C -0.312,0 -0.458,0.243 -0.555,0.404 -0.597,0.473 -0.652,0.566 -0.683,0.566 -0.712,0.566 -0.771,0.469 -0.81,0.404 -0.906,0.243 -1.053,0 -1.364,0 -1.676,0 -1.822,0.243 -1.919,0.404 -1.957,0.469 -2.016,0.566 -2.044,0.566 -2.072,0.566 -2.131,0.469 -2.169,0.404 -2.266,0.243 -2.412,0 -2.723,0 -3.033,0 -3.179,0.244 -3.275,0.405 -3.312,0.466 -3.371,0.566 -3.398,0.566 -3.426,0.566 -3.486,0.465 -3.522,0.404 -3.619,0.243 -3.765,0 -4.075,0 c -0.311,0 -0.456,0.243 -0.553,0.404 -0.036,0.061 -0.097,0.162 -0.124,0.162 -0.138,0 -0.25,0.113 -0.25,0.25 0,0.138 0.112,0.25 0.25,0.25 0.312,0 0.457,-0.244 0.554,-0.405 0.036,-0.06 0.095,-0.161 0.123,-0.161 0.027,0 0.087,0.101 0.123,0.161 0.097,0.161 0.242,0.405 0.554,0.405 0.31,0 0.456,-0.244 0.552,-0.405 C -2.81,0.601 -2.75,0.5 -2.723,0.5 c 0.028,0 0.088,0.101 0.124,0.161 0.097,0.161 0.244,0.405 0.555,0.405 0.312,0 0.458,-0.243 0.555,-0.404 0.038,-0.064 0.096,-0.162 0.125,-0.162 0.029,0 0.088,0.098 0.127,0.162 0.096,0.161 0.243,0.404 0.554,0.404 0.313,0 0.459,-0.243 0.556,-0.404 C -0.088,0.598 -0.029,0.5 0,0.5 0.138,0.5 0.25,0.388 0.25,0.25 0.25,0.112 0.138,0 0,0 m 0,-1.842 c -0.385,0 -0.564,0.32 -0.695,0.553 -0.237,0.418 -0.282,0.418 -0.518,0 -0.131,-0.233 -0.309,-0.553 -0.694,-0.553 -0.385,0 -0.564,0.32 -0.694,0.553 -0.234,0.418 -0.28,0.418 -0.514,0 -0.13,-0.233 -0.309,-0.553 -0.693,-0.553 -0.383,0 -0.561,0.321 -0.691,0.554 -0.103,0.184 -0.17,0.296 -0.253,0.296 -0.138,0 -0.25,0.112 -0.25,0.25 0,0.138 0.112,0.25 0.25,0.25 0.383,0 0.561,-0.32 0.69,-0.553 0.2,-0.359 0.27,-0.432 0.511,0 0.13,0.233 0.309,0.553 0.693,0.553 0.384,0 0.563,-0.32 0.693,-0.553 0.235,-0.421 0.282,-0.415 0.517,0 0.13,0.233 0.309,0.553 0.694,0.553 0.385,0 0.563,-0.32 0.694,-0.552 0.118,-0.21 0.18,-0.298 0.26,-0.298 0.138,0 0.25,-0.112 0.25,-0.25 0,-0.137 -0.112,-0.25 -0.25,-0.25 m 0,-1.944 c -0.526,0 -0.787,0.374 -0.997,0.674 -0.205,0.295 -0.334,0.461 -0.588,0.461 -0.253,0 -0.382,-0.166 -0.587,-0.461 -0.21,-0.3 -0.471,-0.674 -0.997,-0.674 -0.525,0 -0.786,0.374 -0.996,0.674 -0.205,0.295 -0.334,0.461 -0.587,0.461 -0.138,0 -0.25,0.112 -0.25,0.25 0,0.137 0.112,0.25 0.25,0.25 0.526,0 0.787,-0.374 0.997,-0.675 0.205,-0.294 0.333,-0.46 0.586,-0.46 0.253,0 0.382,0.166 0.587,0.461 0.21,0.3 0.471,0.674 0.997,0.674 0.527,0 0.788,-0.374 0.998,-0.675 0.205,-0.294 0.334,-0.46 0.587,-0.46 0.138,0 0.25,-0.112 0.25,-0.25 0,-0.138 -0.112,-0.25 -0.25,-0.25 m -2.376,6.82 c -2.348,0 -4.252,-1.903 -4.252,-4.252 0,-2.348 1.904,-4.252 4.252,-4.252 2.35,0 4.252,1.904 4.252,4.252 0,2.349 -1.902,4.252 -4.252,4.252"
         style="fill:#03a3ac;fill-opacity:1;fill-rule:nonzero;stroke:none"
         id="path1635"
         inkscape:connector-curvature="0" />
    </g>
  </g>
</svg>
