<?xml version="1.0" encoding="UTF-8" standalone="no"?>
<svg
   xmlns:dc="http://purl.org/dc/elements/1.1/"
   xmlns:cc="http://creativecommons.org/ns#"
   xmlns:rdf="http://www.w3.org/1999/02/22-rdf-syntax-ns#"
   xmlns:svg="http://www.w3.org/2000/svg"
   xmlns="http://www.w3.org/2000/svg"
   xmlns:sodipodi="http://sodipodi.sourceforge.net/DTD/sodipodi-0.dtd"
   xmlns:inkscape="http://www.inkscape.org/namespaces/inkscape"
   sodipodi:docname="plaits_7.svg"
   inkscape:version="1.0beta1 (32d4812, 2019-09-19)"
   id="svg7332"
   version="1.1"
   viewBox="0 0 2.9996693 3.0000222"
   height="3.0000222mm"
   width="2.9996693mm">
  <defs
     id="defs7326" />
  <sodipodi:namedview
     inkscape:window-maximized="0"
     inkscape:window-y="23"
     inkscape:window-x="0"
     inkscape:window-height="855"
     inkscape:window-width="1440"
     showgrid="false"
     inkscape:document-rotation="0"
     inkscape:current-layer="layer1"
     inkscape:document-units="mm"
     inkscape:cy="5.6693332"
     inkscape:cx="5.6686664"
     inkscape:zoom="57.061384"
     inkscape:pageshadow="2"
     inkscape:pageopacity="0.0"
     borderopacity="1.0"
     bordercolor="#666666"
     pagecolor="#ffffff"
     id="base" />
  <metadata
     id="metadata7329">
    <rdf:RDF>
      <cc:Work
         rdf:about="">
        <dc:format>image/svg+xml</dc:format>
        <dc:type
           rdf:resource="http://purl.org/dc/dcmitype/StillImage" />
        <dc:title></dc:title>
      </cc:Work>
    </rdf:RDF>
  </metadata>
  <g
     transform="translate(-104.3335,-146.66666)"
     id="layer1"
     inkscape:groupmode="layer"
     inkscape:label="Layer 1">
    <g
       style="opacity:1;stop-opacity:1"
       id="g1603"
       transform="matrix(0.35277777,0,0,-0.35277777,106.25226,148.87011)">
      <path
         d="m 0,0 c 0,-0.135 -0.686,-0.547 -0.715,-0.565 -0.115,-0.098 -0.246,-0.184 -0.406,-0.241 -0.533,-0.191 -1.08,-0.025 -1.221,0.369 -0.14,0.393 0.178,0.868 0.711,1.057 0.465,0.166 0.922,0.052 1.131,-0.236 v 0.955 c -0.127,-0.203 -0.342,-0.381 -0.621,-0.48 -0.533,-0.191 -1.08,-0.025 -1.221,0.37 -0.14,0.392 0.178,0.867 0.711,1.056 0.465,0.166 0.922,0.052 1.131,-0.236 V 3.003 C -0.627,2.8 -0.842,2.622 -1.121,2.523 c -0.533,-0.191 -1.08,-0.025 -1.221,0.37 -0.14,0.392 0.178,0.867 0.711,1.056 0.465,0.166 0.922,0.052 1.131,-0.236 v 1.173 c 0,0.137 0.112,0.25 0.25,0.25 0.138,0 0.25,-0.113 0.25,-0.25 z m -1.187,6.246 c -2.348,0 -4.252,-1.903 -4.252,-4.252 0,-2.348 1.904,-4.252 4.252,-4.252 2.349,0 4.251,1.904 4.251,4.252 0,2.349 -1.902,4.252 -4.251,4.252"
         style="fill:#03a3ac;fill-opacity:1;fill-rule:nonzero;stroke:none"
         id="path1605"
         inkscape:connector-curvature="0" />
    </g>
  </g>
</svg>
