<?xml version="1.0" encoding="UTF-8" standalone="no"?>
<svg
   xmlns:dc="http://purl.org/dc/elements/1.1/"
   xmlns:cc="http://creativecommons.org/ns#"
   xmlns:rdf="http://www.w3.org/1999/02/22-rdf-syntax-ns#"
   xmlns:svg="http://www.w3.org/2000/svg"
   xmlns="http://www.w3.org/2000/svg"
   xmlns:sodipodi="http://sodipodi.sourceforge.net/DTD/sodipodi-0.dtd"
   xmlns:inkscape="http://www.inkscape.org/namespaces/inkscape"
   sodipodi:docname="plaits_12.svg"
   inkscape:version="1.0beta1 (32d4812, 2019-09-19)"
   id="svg10366"
   version="1.1"
   viewBox="0 0 3.0000222 3.0000222"
   height="3.0000222mm"
   width="3.0000222mm">
  <defs
     id="defs10360" />
  <sodipodi:namedview
     inkscape:window-maximized="0"
     inkscape:window-y="23"
     inkscape:window-x="0"
     inkscape:window-height="855"
     inkscape:window-width="1440"
     showgrid="false"
     inkscape:document-rotation="0"
     inkscape:current-layer="layer1"
     inkscape:document-units="mm"
     inkscape:cy="5.6693332"
     inkscape:cx="5.6693332"
     inkscape:zoom="57.061384"
     inkscape:pageshadow="2"
     inkscape:pageopacity="0.0"
     borderopacity="1.0"
     bordercolor="#666666"
     pagecolor="#ffffff"
     id="base" />
  <metadata
     id="metadata10363">
    <rdf:RDF>
      <cc:Work
         rdf:about="">
        <dc:format>image/svg+xml</dc:format>
        <dc:type
           rdf:resource="http://purl.org/dc/dcmitype/StillImage" />
        <dc:title></dc:title>
      </cc:Work>
    </rdf:RDF>
  </metadata>
  <g
     transform="translate(-104.33333,-146.66665)"
     id="layer1"
     inkscape:groupmode="layer"
     inkscape:label="Layer 1">
    <g
       style="opacity:1;stop-opacity:1"
       id="g1321"
       transform="matrix(0.35277777,0,0,-0.35277777,106.76961,148.32859)">
      <path
         d="M 0,0 C -0.016,-0.146 -0.094,-0.283 -0.129,-0.4 -0.168,-0.518 -0.251,-0.615 -0.285,-0.684 -0.33,-0.752 -0.367,-0.791 -0.367,-0.791 l -0.014,-0.015 c -0.008,-0.007 -0.021,-0.007 -0.03,0 -0.004,0.004 -0.007,0.009 -0.007,0.015 0,0 -0.012,0.625 -0.024,1.25 0.012,0.625 0.024,1.25 0.024,1.25 0.001,0.012 0.011,0.021 0.022,0.021 0.007,0 0.012,-0.002 0.016,-0.007 l 0.013,-0.014 c 0,0 0.137,-0.156 0.238,-0.391 0.035,-0.117 0.116,-0.254 0.13,-0.4 C 0.019,0.771 0.038,0.615 0.057,0.459 0.037,0.303 0.019,0.146 0,0 M -1.104,-0.269 C -1.119,-0.5 -1.197,-0.717 -1.232,-0.902 -1.271,-1.088 -1.354,-1.243 -1.389,-1.352 -1.434,-1.46 -1.471,-1.521 -1.471,-1.521 l -0.008,-0.012 c -0.005,-0.011 -0.02,-0.015 -0.031,-0.008 -0.008,0.004 -0.011,0.012 -0.011,0.02 0,0 -0.012,0.99 -0.025,1.98 0.013,0.99 0.025,1.98 0.025,1.98 0,0.013 0.011,0.024 0.024,0.024 0.009,0 0.016,-0.005 0.019,-0.013 l 0.007,-0.011 c 0,0 0.137,-0.248 0.239,-0.619 0.035,-0.185 0.116,-0.402 0.129,-0.633 0.018,-0.233 0.038,-0.48 0.056,-0.728 -0.019,-0.248 -0.038,-0.495 -0.057,-0.728 m -1.3,-2.379 c 0,-0.138 -0.113,-0.25 -0.25,-0.25 -0.138,0 -0.25,0.112 -0.25,0.25 v 6.214 c 0,0.138 0.112,0.25 0.25,0.25 0.137,0 0.25,-0.112 0.25,-0.25 z m -1.383,1.127 c 0,-0.013 -0.012,-0.024 -0.025,-0.024 -0.008,0 -0.015,0.005 -0.019,0.013 l -0.007,0.011 c 0,0 -0.137,0.248 -0.238,0.619 -0.035,0.185 -0.116,0.402 -0.13,0.633 -0.018,0.233 -0.037,0.48 -0.056,0.728 0.02,0.248 0.038,0.495 0.057,0.728 0.016,0.231 0.094,0.448 0.129,0.633 0.039,0.186 0.122,0.341 0.156,0.45 0.045,0.108 0.082,0.169 0.082,0.169 l 0.008,0.012 c 0.006,0.011 0.02,0.015 0.031,0.008 0.008,-0.004 0.012,-0.012 0.012,-0.02 0,0 0.012,-0.99 0.024,-1.98 -0.012,-0.99 -0.024,-1.98 -0.024,-1.98 m -1.104,0.73 c -0.001,-0.012 -0.01,-0.021 -0.022,-0.021 -0.007,0 -0.012,0.002 -0.016,0.007 l -0.012,0.014 c 0,0 -0.137,0.156 -0.239,0.391 -0.035,0.117 -0.116,0.254 -0.13,0.4 -0.017,0.146 -0.037,0.303 -0.055,0.459 0.019,0.156 0.038,0.312 0.056,0.459 0.016,0.146 0.094,0.283 0.129,0.4 0.039,0.118 0.122,0.215 0.157,0.284 0.044,0.068 0.082,0.107 0.082,0.107 l 0.013,0.015 c 0.008,0.007 0.022,0.007 0.031,0 0.003,-0.004 0.006,-0.009 0.006,-0.015 0,0 0.012,-0.625 0.025,-1.25 -0.013,-0.625 -0.025,-1.25 -0.025,-1.25 m 2.237,5.502 c -2.35,0 -4.252,-1.903 -4.252,-4.252 0,-2.349 1.902,-4.252 4.252,-4.252 2.347,0 4.252,1.903 4.252,4.252 0,2.349 -1.905,4.252 -4.252,4.252"
         style="fill:#db285d;fill-opacity:1;fill-rule:nonzero;stroke:none"
         id="path1323"
         inkscape:connector-curvature="0" />
    </g>
  </g>
</svg>
