<svg xmlns="http://www.w3.org/2000/svg" viewBox="0 0 10 10"><defs><style>.cls-1{fill:#706f6f;}</style></defs><title>Asset 4</title><g id="Layer_2" data-name="Layer 2"><g id="graphics"><path class="cls-1" d="M5,0a5,5,0,1,0,5,5A5,5,0,0,0,5,0ZM8.29,5.29C8,5.63,7.61,6,7.26,6s-.48-.34-.6-.61a2.35,2.35,0,0,0-.11-.24l-.13.31c-.15.37-.34.83-.78.83S5.07,5.76,5,5.22c0-.12,0-.29-.08-.44,0,.24-.07.56-.09.81-.08,1-.17,2-.85,2S3.25,6.47,3.22,5c0-.43,0-1-.07-1.37a8.43,8.43,0,0,0-.33,1.73.36.36,0,0,1-.39.32.35.35,0,0,1-.32-.39c.11-1.18.4-2.59,1.15-2.59s.64.86.67,2.29c0,.45,0,1.11.08,1.54.06-.31.09-.72.12-1,.08-1,.15-1.76.75-1.76s.73.75.82,1.36c0,0,0,.12,0,.18a.63.63,0,0,0,0-.09c.16-.39.35-.84.78-.84s.65.47.78.77a.69.69,0,0,0,0,.1c.1-.1.26-.26.39-.41a.36.36,0,0,1,.5,0A.35.35,0,0,1,8.29,5.29Z"/></g></g></svg>