<svg xmlns="http://www.w3.org/2000/svg" viewBox="0 0 11.34 11.34"><defs><style>.cls-1{fill:#a7a7a7;}</style></defs><title>Asset 3</title><g id="Layer_2" data-name="Layer 2"><g id="Impression"><rect class="cls-1" x="5.29" y="6.03" width="0.75" height="0.31"/><rect class="cls-1" x="5.29" y="6.6" width="0.75" height="0.31"/><path class="cls-1" d="M4.14,4.87a.6.6,0,1,0,0,1.19.6.6,0,0,0,0-1.19Z"/><rect class="cls-1" x="5.29" y="5.46" width="0.75" height="0.31"/><path class="cls-1" d="M5.67,0a5.67,5.67,0,1,0,5.67,5.67A5.67,5.67,0,0,0,5.67,0ZM2.47,6.25H1.78V4.41h.69ZM6.56,8.5H4.78V7.63H6.56ZM8.42,6.81a.57.57,0,0,1-.57.56H3.49a.57.57,0,0,1-.57-.56V4.12a.58.58,0,0,1,.57-.57H7.85a.58.58,0,0,1,.57.57Zm1.14-.56H8.87V4.41h.69Z"/><path class="cls-1" d="M7.2,4.87a.6.6,0,1,0,.59.59A.59.59,0,0,0,7.2,4.87Z"/></g></g></svg>
