<svg xmlns="http://www.w3.org/2000/svg" viewBox="0 0 11.34 11.34"><defs><style>.cls-1{fill:#706f6f;}</style></defs><title>Asset 5</title><g id="Layer_2" data-name="Layer 2"><g id="Impression"><path class="cls-1" d="M6.14,5.17H8.41A2.8,2.8,0,0,0,6.14,2.92Z"/><path class="cls-1" d="M5.14,6.17H2.92A2.8,2.8,0,0,0,5.14,8.41Z"/><path class="cls-1" d="M5.14,5.17V2.92A2.82,2.82,0,0,0,2.92,5.17Z"/><path class="cls-1" d="M5.67,0a5.67,5.67,0,1,0,5.67,5.67A5.67,5.67,0,0,0,5.67,0Zm0,9.46A3.8,3.8,0,1,1,9.46,5.67,3.8,3.8,0,0,1,5.67,9.46Z"/><path class="cls-1" d="M6.14,6.17V8.42A2.8,2.8,0,0,0,8.41,6.17Z"/></g></g></svg>