<svg xmlns="http://www.w3.org/2000/svg" viewBox="0 0 11.34 11.34"><defs><style>.cls-1{fill:#a7a7a7;}</style></defs><title>Asset 2</title><g id="Layer_2" data-name="Layer 2"><g id="Impression"><path class="cls-1" d="M4.9,5.65a.56.56,0,1,0-.56.55A.56.56,0,0,0,4.9,5.65Z"/><rect class="cls-1" x="4.03" y="6.94" width="3.28" height="0.32"/><rect class="cls-1" x="4.03" y="7.61" width="3.28" height="0.32"/><path class="cls-1" d="M6.83,5.08a.57.57,0,1,0,.57.57A.56.56,0,0,0,6.83,5.08Z"/><path class="cls-1" d="M5.67,0a5.67,5.67,0,1,0,5.67,5.67A5.67,5.67,0,0,0,5.67,0ZM9,6.52H8.41V8.6H2.92V6.52H2.37V5H3A2.59,2.59,0,0,1,5.39,2.52a.47.47,0,1,1,.75-.38A.49.49,0,0,1,6,2.52,2.59,2.59,0,0,1,8.36,5H9Z"/></g></g></svg>
