<svg xmlns="http://www.w3.org/2000/svg" viewBox="0 0 11.34 11.34"><defs><style>.cls-1{fill:#706f6f;}</style></defs><title>Asset 1</title><g id="Layer_2" data-name="Layer 2"><g id="Impression"><path class="cls-1" d="M5.67,0a5.67,5.67,0,1,0,5.67,5.67A5.67,5.67,0,0,0,5.67,0Zm4,6H8.64l.41.71a.37.37,0,0,1-.14.51.32.32,0,0,1-.19,0,.37.37,0,0,1-.32-.19L7.77,6H6.33L7,7.22H8.34a.38.38,0,1,1,0,.75H7.53l.53.92a.37.37,0,0,1-.14.51.29.29,0,0,1-.18,0,.38.38,0,0,1-.33-.18l-.53-.93-.41.71a.37.37,0,0,1-.32.19A.45.45,0,0,1,6,9.19a.39.39,0,0,1-.14-.52l.58-1L5.68,6.42l-.63,1.1.66,1.15a.38.38,0,0,1-.13.52.45.45,0,0,1-.19.05.39.39,0,0,1-.33-.19l-.4-.7-.53.92a.38.38,0,0,1-.33.18.34.34,0,0,1-.19,0,.36.36,0,0,1-.13-.51L4,8H3.19a.38.38,0,0,1,0-.75H4.35L5,6H3.76L3.14,7.13a.38.38,0,0,1-.33.18.34.34,0,0,1-.19,0,.37.37,0,0,1-.13-.51L2.9,6H1.83a.37.37,0,0,1-.38-.37.38.38,0,0,1,.38-.38H2.9l-.41-.7a.37.37,0,0,1,.13-.51.38.38,0,0,1,.52.13l.62,1.08H5L4.35,4.12H3.19a.38.38,0,0,1,0-.75H4l-.53-.92a.37.37,0,0,1,.64-.38L4.66,3l.4-.71a.39.39,0,0,1,.52-.14.37.37,0,0,1,.13.51L5.05,3.82l.63,1.1L6.4,3.67l-.58-1a.37.37,0,1,1,.65-.37l.41.7.53-.92a.38.38,0,1,1,.65.38l-.53.92h.81a.38.38,0,1,1,0,.75H7L6.33,5.29H7.77L8.4,4.21A.37.37,0,1,1,9,4.59l-.4.7H9.7a.38.38,0,0,1,.38.38A.37.37,0,0,1,9.7,6Z"/></g></g></svg>