<svg xmlns="http://www.w3.org/2000/svg" viewBox="0 0 11.34 11.34"><defs><style>.cls-1{fill:#706f6f;}</style></defs><title>Asset 6</title><g id="Layer_2" data-name="Layer 2"><g id="Impression"><path class="cls-1" d="M5.67,2.87a2.8,2.8,0,1,0,2.79,2.8A2.81,2.81,0,0,0,5.67,2.87ZM7.29,6.61l-.71.71-.94-1-.94,1L4,6.61l.94-.94L4,4.72,4.7,4,5.64,5,6.58,4l.71.7-.94,1Z"/><path class="cls-1" d="M5.67,0a5.67,5.67,0,1,0,5.67,5.67A5.67,5.67,0,0,0,5.67,0Zm0,9.46A3.8,3.8,0,1,1,9.46,5.67,3.8,3.8,0,0,1,5.67,9.46Z"/></g></g></svg>